<?xml version="1.0" encoding="utf-8"?>
<svg viewBox="6.002 1.024 290.951 201.615" xmlns="http://www.w3.org/2000/svg">
  <g transform="matrix(3.245629, 0, 0, 3.245629, 78.254509, -39.598484)">
    <path fill="#292929" d="m56.2445,38.05008l0,-23.629c0,-1.053 -0.852,-1.905 -1.905,-1.905l-74.697,0c-1.053,0 -1.904,0.852 -1.904,1.904l0,48.021c0,1.051 0.852,1.905 1.904,1.905l29.658,0l-0.921,8.267l-3.455,0.728c-0.222,0.062 -0.369,0.235 -0.342,0.505c0.025,0.27 0.216,0.396 0.444,0.396l23.929,0c0.227,0 0.419,-0.248 0.445,-0.517c0.026,-0.27 -0.12,-0.556 -0.343,-0.618l-3.455,-0.531l-0.921,-8.23l7.64,0l0,-23.248c0,-1.68 1.366,-3.048 3.048,-3.048l20.875,0zm-39.253,-24.466c0.418,0 0.756,0.339 0.756,0.756c0,0.418 -0.339,0.756 -0.756,0.756c-0.418,0 -0.756,-0.339 -0.756,-0.756c-0.001,-0.417 0.338,-0.756 0.756,-0.756z"/>
    <path fill="#515151" d="m65.4775,53.29308l-8.003,0c-1.053,0 -1.905,0.855 -1.905,1.906l0,17.53c0,1.053 0.853,1.906 1.905,1.906l8.003,0c1.054,0 1.905,-0.854 1.905,-1.906l0,-17.53c0.001,-1.051 -0.852,-1.906 -1.905,-1.906zm-4.001,19.677c-0.418,0 -0.756,-0.339 -0.756,-0.756c0,-0.418 0.339,-0.756 0.756,-0.756c0.418,0 0.756,0.339 0.756,0.756c0,0.418 -0.339,0.756 -0.756,0.756z"/>
    <path fill="#1de8b5" d="m57.4745,51.67408l3.334,0l0,-10.576c0,-0.788 -0.641,-1.429 -1.428,-1.429l-24.01,0c-0.787,0 -1.429,0.641 -1.429,1.429l0,31.251c0,0.788 0.642,1.428 1.429,1.428l18.74,0c-0.106,-0.338 -0.16,-0.692 -0.16,-1.047l0,-17.53c0,-1.945 1.58,-3.526 3.524,-3.526zm-10.099,21.296c-0.418,0 -0.756,-0.339 -0.756,-0.756c0,-0.418 0.339,-0.756 0.756,-0.756c0.418,0 0.756,0.339 0.756,0.756c0,0.418 -0.339,0.756 -0.756,0.756z"/>
  </g>
</svg>